<svg xmlns="http://www.w3.org/2000/svg" viewBox="0 0 48 48">
    <path fill="#ff4081" d="M21 7A3 3 0 1 0 21 13A3 3 0 1 0 21 7Z" />
    <path fill="#ff4081" d="M27 7A3 3 0 1 0 27 13A3 3 0 1 0 27 7Z" />
    <path fill="#ff4081" d="M24 17L29.137 12.106 24 10 18.91 12.152z" />
    <path fill="#3e2723" d="M26 25H42V40H26z" />
    <path fill="#ffb74d" d="M43,24c0-7.635-18-4.971-18,0v7c0,4.971,4.028,9,9,9c4.971,0,9-4.029,9-9V24z" />
    <path fill="#784719"
        d="M37 30c0 .551.448 1 1 1s1-.449 1-1-.448-1-1-1S37 29.449 37 30M29 30c0 .551.448 1 1 1s1-.449 1-1-.448-1-1-1S29 29.449 29 30" />
    <path fill="#795548" d="M34,15c-6.075,0-14,3.165-14,21l6,4V29l12-7l4,5v13l6-5c0-2.819,0.326-18-10-18l-1-2H34z" />
    <path fill="#bf360c" d="M6 25H22V40H6z" />
    <path fill="#ffb74d" d="M23,24c0-7.635-18-4.971-18,0v7c0,4.971,4.028,9,9,9c4.971,0,9-4.029,9-9V24z" />
    <path fill="#784719"
        d="M17 30c0 .551.448 1 1 1s1-.449 1-1-.448-1-1-1S17 29.449 17 30M9 30c0 .551.448 1 1 1s1-.449 1-1-.448-1-1-1S9 29.449 9 30" />
    <path fill="#ff5722" d="M14,15C7.925,15,0,18.165,0,36l6,4V29l12-7l4,5v13l6-5c0-2.819,0.326-18-10-18l-1-2H14z" />
</svg>